# Blender v2.75 (sub 0) OBJ File: ''
# www.blender.org
mtllib cornellbox.mtl
o floor
v 0.000000 0.000000 0.000000
v 0.000000 0.000000 2.500000
v 0.000000 0.000000 5.000000
v 0.000000 0.000000 7.500000
v 2.500000 0.000000 0.000000
v 5.000000 0.000000 0.000000
v 7.500000 0.000000 0.000000
v 0.000000 0.000000 -2.500000
v 0.000000 0.000000 -5.000000
v 0.000000 0.000000 -7.500000
v -2.500000 0.000000 0.000000
v -5.000000 0.000000 0.000000
v -7.500000 0.000000 0.000000
v -2.500000 0.000000 2.500000
v -2.500000 0.000000 5.000000
v -2.500000 0.000000 7.500000
v -5.000000 0.000000 2.500000
v -5.000000 0.000000 5.000000
v -5.000000 0.000000 7.500000
v -7.500000 0.000000 2.500000
v -7.500000 0.000000 5.000000
v -7.500000 0.000000 7.500000
v 2.500000 0.000000 2.500000
v 5.000000 0.000000 2.500000
v 7.500000 0.000000 2.500000
v 2.500000 0.000000 5.000000
v 5.000000 0.000000 5.000000
v 7.500000 0.000000 5.000000
v 2.500000 0.000000 7.500000
v 5.000000 0.000000 7.500000
v 7.500000 0.000000 7.500000
v 2.500000 0.000000 -2.500000
v 2.500000 0.000000 -5.000000
v 2.500000 0.000000 -7.500000
v 5.000000 0.000000 -2.500000
v 5.000000 0.000000 -5.000000
v 5.000000 0.000000 -7.500000
v 7.500000 0.000000 -2.500000
v 7.500000 0.000000 -5.000000
v 7.500000 0.000000 -7.500000
v -2.500000 0.000000 -2.500000
v -5.000000 0.000000 -2.500000
v -7.500000 0.000000 -2.500000
v -2.500000 0.000000 -5.000000
v -5.000000 0.000000 -5.000000
v -7.500000 0.000000 -5.000000
v -2.500000 0.000000 -7.500000
v -5.000000 0.000000 -7.500000
v -7.500000 0.000000 -7.500000
v -10.000000 0.000000 -7.500000
v -10.000000 0.000000 -5.000000
v -10.000000 0.000000 -2.500000
v -10.000000 0.000000 0.000000
v -10.000000 0.000000 2.500000
v -10.000000 0.000000 5.000000
v -10.000000 0.000000 7.500000
v -7.500000 0.000000 10.000000
v -5.000000 0.000000 10.000000
v -2.500000 0.000000 10.000000
v 0.000000 0.000000 10.000000
v 2.500000 0.000000 10.000000
v 5.000000 0.000000 10.000000
v 7.500000 0.000000 10.000000
v 10.000000 0.000000 7.500000
v 10.000000 0.000000 5.000000
v 10.000000 0.000000 2.500000
v 10.000000 0.000000 0.000000
v 10.000000 0.000000 -2.500000
v 10.000000 0.000000 -5.000000
v 10.000000 0.000000 -7.500000
v 7.500000 0.000000 -10.000000
v 5.000000 0.000000 -10.000000
v 2.500000 0.000000 -10.000000
v 0.000000 0.000000 -10.000000
v -2.500000 0.000000 -10.000000
v -5.000000 0.000000 -10.000000
v -7.500000 0.000000 -10.000000
v -10.000000 0.000000 10.000000
v 10.000000 0.000000 10.000000
v -10.000000 0.000000 -10.000000
v 10.000000 0.000000 -10.000000
vn 0.000000 1.000000 0.000000
usemtl floor
s off
f 11//1 14//1 2//1
f 14//1 15//1 3//1
f 15//1 16//1 4//1
f 16//1 59//1 60//1
f 12//1 17//1 14//1
f 17//1 18//1 15//1
f 18//1 19//1 16//1
f 19//1 58//1 59//1
f 13//1 20//1 17//1
f 20//1 21//1 18//1
f 21//1 22//1 19//1
f 22//1 57//1 58//1
f 53//1 54//1 20//1
f 54//1 55//1 21//1
f 55//1 56//1 22//1
f 56//1 78//1 57//1
f 2//1 23//1 5//1
f 23//1 24//1 6//1
f 24//1 25//1 7//1
f 25//1 66//1 67//1
f 3//1 26//1 23//1
f 26//1 27//1 24//1
f 27//1 28//1 25//1
f 28//1 65//1 66//1
f 4//1 29//1 26//1
f 29//1 30//1 27//1
f 30//1 31//1 28//1
f 31//1 64//1 65//1
f 60//1 61//1 29//1
f 61//1 62//1 30//1
f 62//1 63//1 31//1
f 63//1 79//1 64//1
f 5//1 32//1 8//1
f 32//1 33//1 9//1
f 33//1 34//1 10//1
f 34//1 73//1 74//1
f 6//1 35//1 32//1
f 35//1 36//1 33//1
f 36//1 37//1 34//1
f 37//1 72//1 73//1
f 7//1 38//1 35//1
f 38//1 39//1 36//1
f 39//1 40//1 37//1
f 40//1 71//1 72//1
f 67//1 68//1 38//1
f 68//1 69//1 39//1
f 69//1 70//1 40//1
f 70//1 81//1 71//1
f 8//1 41//1 11//1
f 41//1 42//1 12//1
f 42//1 43//1 13//1
f 43//1 52//1 53//1
f 9//1 44//1 41//1
f 44//1 45//1 42//1
f 45//1 46//1 43//1
f 46//1 51//1 52//1
f 10//1 47//1 44//1
f 47//1 48//1 45//1
f 48//1 49//1 46//1
f 49//1 50//1 51//1
f 74//1 75//1 47//1
f 75//1 76//1 48//1
f 76//1 77//1 49//1
f 77//1 80//1 50//1
f 1//1 11//1 2//1
f 2//1 14//1 3//1
f 3//1 15//1 4//1
f 4//1 16//1 60//1
f 11//1 12//1 14//1
f 14//1 17//1 15//1
f 15//1 18//1 16//1
f 16//1 19//1 59//1
f 12//1 13//1 17//1
f 17//1 20//1 18//1
f 18//1 21//1 19//1
f 19//1 22//1 58//1
f 13//1 53//1 20//1
f 20//1 54//1 21//1
f 21//1 55//1 22//1
f 22//1 56//1 57//1
f 1//1 2//1 5//1
f 5//1 23//1 6//1
f 6//1 24//1 7//1
f 7//1 25//1 67//1
f 2//1 3//1 23//1
f 23//1 26//1 24//1
f 24//1 27//1 25//1
f 25//1 28//1 66//1
f 3//1 4//1 26//1
f 26//1 29//1 27//1
f 27//1 30//1 28//1
f 28//1 31//1 65//1
f 4//1 60//1 29//1
f 29//1 61//1 30//1
f 30//1 62//1 31//1
f 31//1 63//1 64//1
f 1//1 5//1 8//1
f 8//1 32//1 9//1
f 9//1 33//1 10//1
f 10//1 34//1 74//1
f 5//1 6//1 32//1
f 32//1 35//1 33//1
f 33//1 36//1 34//1
f 34//1 37//1 73//1
f 6//1 7//1 35//1
f 35//1 38//1 36//1
f 36//1 39//1 37//1
f 37//1 40//1 72//1
f 7//1 67//1 38//1
f 38//1 68//1 39//1
f 39//1 69//1 40//1
f 40//1 70//1 71//1
f 1//1 8//1 11//1
f 11//1 41//1 12//1
f 12//1 42//1 13//1
f 13//1 43//1 53//1
f 8//1 9//1 41//1
f 41//1 44//1 42//1
f 42//1 45//1 43//1
f 43//1 46//1 52//1
f 9//1 10//1 44//1
f 44//1 47//1 45//1
f 45//1 48//1 46//1
f 46//1 49//1 51//1
f 10//1 74//1 47//1
f 47//1 75//1 48//1
f 48//1 76//1 49//1
f 49//1 77//1 50//1
o leftwall
v -1.010000 -0.000000 0.990000
v -0.990000 0.000000 -1.040000
v -1.020000 1.990000 -1.040000
v -1.020000 1.990000 0.990000
vn 0.999800 0.015100 0.009900
vn 1.000000 0.005000 0.000000
usemtl leftwall
s off
f 82//2 83//2 84//2
f 85//3 82//3 84//3
o shortbox
v 0.530000 0.600000 0.750000
v 0.700000 0.600000 0.170000
v 0.130000 0.600000 0.000000
v -0.050000 0.600000 0.570000
v -0.050000 -0.000000 0.570000
v -0.050000 0.600000 0.570000
v 0.130000 0.600000 0.000000
v 0.130000 0.000000 0.000000
v 0.530000 -0.000000 0.750000
v 0.530000 0.600000 0.750000
v -0.050000 0.600000 0.570000
v -0.050000 -0.000000 0.570000
v 0.700000 -0.000000 0.170000
v 0.700000 0.600000 0.170000
v 0.530000 0.600000 0.750000
v 0.530000 -0.000000 0.750000
v 0.130000 0.000000 0.000000
v 0.130000 0.600000 0.000000
v 0.700000 0.600000 0.170000
v 0.700000 -0.000000 0.170000
vn -0.000000 1.000000 0.000000
vn -0.953600 0.000000 -0.301100
vn -0.296400 -0.000000 0.955100
vn 0.285800 0.000000 -0.958300
vn 0.959600 0.000000 0.281300
usemtl shortbox
s off
f 87//4 88//4 89//4
f 91//5 92//5 93//5
f 95//6 96//6 97//6
f 103//7 104//7 105//7
f 99//8 100//8 101//8
f 86//4 87//4 89//4
f 90//5 91//5 93//5
f 94//6 95//6 97//6
f 102//7 103//7 105//7
f 98//8 99//8 101//8
o tallbox
v -0.530580 1.200000 0.090000
v 0.039420 1.200000 -0.090000
v -0.140580 1.200000 -0.670000
v -0.710580 1.200000 -0.490000
v -0.530580 -0.000000 0.090000
v -0.530580 1.200000 0.090000
v -0.710580 1.200000 -0.490000
v -0.710580 0.000000 -0.490000
v -0.710580 0.000000 -0.490000
v -0.710580 1.200000 -0.490000
v -0.140580 1.200000 -0.670000
v -0.140580 0.000000 -0.670000
v -0.140580 0.000000 -0.670000
v -0.140580 1.200000 -0.670000
v 0.039420 1.200000 -0.090000
v 0.039420 0.000000 -0.090000
v 0.039420 0.000000 -0.090000
v 0.039420 1.200000 -0.090000
v -0.530580 1.200000 0.090000
v -0.530580 -0.000000 0.090000
vn 0.000000 1.000000 0.000000
vn -0.955100 0.000000 0.296400
vn -0.301100 0.000000 -0.953600
vn 0.955100 0.000000 -0.296400
vn 0.301100 -0.000000 0.953600
usemtl tallbox
s off
f 107//9 108//9 109//9
f 111//10 112//10 113//10
f 115//11 116//11 117//11
f 119//12 120//12 121//12
f 123//13 124//13 125//13
f 106//9 107//9 109//9
f 110//10 111//10 113//10
f 114//11 115//11 117//11
f 118//12 119//12 121//12
f 122//13 123//13 125//13
o backwall
v -0.990000 0.000000 -1.040000
v 1.000000 0.000000 -1.040000
v 1.000000 1.990000 -1.040000
v -1.020000 1.990000 -1.040000
vn 0.000000 -0.000000 1.000000
usemtl backwall
s off
f 126//14 127//14 128//14
f 129//14 126//14 128//14
o ceiling
v -1.020000 1.990000 0.990000
v -1.020000 1.990000 -1.040000
v 1.000000 1.990000 -1.040000
v 1.000000 1.990000 0.990000
vn 0.000000 -1.000000 0.000000
usemtl ceiling
s off
f 131//15 132//15 133//15
f 130//15 131//15 133//15
o rightwall
v 1.000000 0.000000 -1.040000
v 1.000000 -0.000000 0.990000
v 1.000000 1.990000 0.990000
v 1.000000 1.990000 -1.040000
vn -1.000000 0.000000 0.000000
usemtl rightwall
s off
f 135//16 136//16 137//16
f 134//16 135//16 137//16
o light
v -0.240000 1.980000 0.160000
v -0.240000 1.980000 -0.220000
v 0.230000 1.980000 -0.220000
v 0.230000 1.980000 0.160000
vn 0.000000 -1.000000 0.000000
usemtl light
s off
f 139//17 140//17 141//17
f 138//17 139//17 141//17
